# Blender v2.93.1 OBJ File: 'hex_simple.blend'
# www.blender.org
mtllib hex_simple.mtl
o hex
v 0.000000 0.000000 -1.000000
v -0.866025 0.000000 -0.500000
v -0.866025 0.000000 0.500000
v 0.000000 0.000000 1.000000
v 0.866025 0.000000 0.500000
v 0.866025 0.000000 -0.500000
v 0.000000 0.750000 -1.000000
v -0.866025 0.750000 -0.500000
v -0.866025 0.750000 0.500000
v 0.000000 0.750000 1.000000
v 0.866025 0.750000 0.500000
v 0.866025 0.750000 -0.500000
vt 0.000000 0.000000
vt 0.000000 0.000000
vt 0.000000 0.000000
vt 0.000000 0.000000
vt 0.000000 0.000000
vt 0.000000 0.000000
vt 0.000000 0.000000
vt 0.000000 0.000000
vt 0.000000 0.000000
vt 0.000000 0.000000
vt 0.000000 0.000000
vt 0.000000 0.000000
vn 0.0000 -1.0000 0.0000
vn 0.0000 1.0000 0.0000
vn 0.5000 0.0000 -0.8660
vn 0.5000 0.0000 0.8660
vn -1.0000 0.0000 0.0000
vn 1.0000 0.0000 0.0000
vn -0.5000 0.0000 0.8660
vn -0.5000 0.0000 -0.8660
usemtl None
s off
f 2/1/1 1/2/1 6/3/1 5/4/1 4/5/1 3/6/1
f 8/7/2 9/8/2 10/9/2 11/10/2 12/11/2 7/12/2
f 6/3/3 1/2/3 7/12/3 12/11/3
f 4/5/4 5/4/4 11/10/4 10/9/4
f 2/1/5 3/6/5 9/8/5 8/7/5
f 5/4/6 6/3/6 12/11/6 11/10/6
f 3/6/7 4/5/7 10/9/7 9/8/7
f 1/2/8 2/1/8 8/7/8 7/12/8
